<svg width="24" height="13" viewBox="0 0 24 13" fill="none" xmlns="http://www.w3.org/2000/svg">
<path d="M0.92 3.176C0.973333 3.144 1 3.12267 1 3.112C1 3.09067 1.02133 3.08 1.064 3.08C1.096 3.08 1.12267 3.06933 1.144 3.048C1.144 3.016 1.16533 3.01067 1.208 3.032C1.21867 3.04267 1.26133 3.03733 1.336 3.016C1.432 2.984 1.55467 2.968 1.704 2.968C1.768 2.94667 1.8 2.936 1.8 2.936C1.77867 2.904 1.78933 2.86133 1.832 2.808C1.87467 2.744 1.912 2.712 1.944 2.712C1.99733 2.712 2.024 2.696 2.024 2.664C2.024 2.62133 2.08267 2.57333 2.2 2.52C2.31733 2.456 2.41867 2.424 2.504 2.424C2.54667 2.424 2.568 2.408 2.568 2.376C2.568 2.35467 2.57867 2.344 2.6 2.344C2.62133 2.33333 2.63733 2.328 2.648 2.328C2.66933 2.328 2.70667 2.31733 2.76 2.296C2.78133 2.27467 2.81867 2.25867 2.872 2.248C2.936 2.22667 3 2.20533 3.064 2.184C3.128 2.16267 3.18667 2.14133 3.24 2.12C3.29333 2.09867 3.33067 2.07733 3.352 2.056C3.37333 2.024 3.416 2.00267 3.48 1.992C3.544 1.97067 3.58667 1.97067 3.608 1.992C3.62933 2.01333 3.66133 2.024 3.704 2.024C3.74667 2.024 3.784 2.01333 3.816 1.992C3.83733 1.97067 3.864 1.96 3.896 1.96C3.93867 1.94933 3.976 1.944 4.008 1.944C4.104 1.944 4.152 1.93333 4.152 1.912C4.152 1.90133 4.184 1.88533 4.248 1.864C4.26933 1.85333 4.29067 1.848 4.312 1.848C4.344 1.83733 4.36533 1.82667 4.376 1.816C4.45067 1.76267 4.54667 1.736 4.664 1.736C4.77067 1.736 4.824 1.75733 4.824 1.8C4.824 1.84267 4.83467 1.85867 4.856 1.848C4.87733 1.82667 4.89867 1.78933 4.92 1.736C4.952 1.66133 4.99467 1.624 5.048 1.624C5.112 1.624 5.144 1.61333 5.144 1.592C5.15467 1.58133 5.18133 1.576 5.224 1.576C5.256 1.59733 5.28267 1.59733 5.304 1.576C5.31467 1.56533 5.34133 1.55467 5.384 1.544C5.43733 1.53333 5.48533 1.52267 5.528 1.512C5.58133 1.50133 5.62933 1.496 5.672 1.496C5.71467 1.48533 5.736 1.48 5.736 1.48C5.75733 1.50133 5.77867 1.50133 5.8 1.48C5.832 1.448 5.864 1.44267 5.896 1.464C5.928 1.464 5.94933 1.45333 5.96 1.432C5.97067 1.41067 5.99733 1.4 6.04 1.4C6.08267 1.38933 6.11467 1.39467 6.136 1.416C6.15733 1.43733 6.17333 1.44267 6.184 1.432C6.20533 1.38933 6.25867 1.35733 6.344 1.336C6.44 1.31467 6.504 1.31467 6.536 1.336C6.58933 1.35733 6.62133 1.36267 6.632 1.352C6.65333 1.352 6.67467 1.37333 6.696 1.416C6.71733 1.46933 6.744 1.50133 6.776 1.512C6.808 1.53333 6.824 1.56 6.824 1.592C6.83467 1.624 6.81867 1.65067 6.776 1.672C6.75467 1.69333 6.744 1.70933 6.744 1.72C6.744 1.73067 6.76 1.77333 6.792 1.848C6.83467 1.912 6.85067 1.98667 6.84 2.072C6.84 2.14667 6.81333 2.184 6.76 2.184V2.248C6.77067 2.28 6.75467 2.312 6.712 2.344C6.66933 2.36533 6.62667 2.36533 6.584 2.344C6.56267 2.33333 6.55733 2.34933 6.568 2.392C6.57867 2.43467 6.536 2.48267 6.44 2.536C6.35467 2.58933 6.28 2.616 6.216 2.616C6.17333 2.616 6.152 2.62667 6.152 2.648C6.152 2.66933 6.12533 2.68 6.072 2.68C6.02933 2.68 5.99733 2.69067 5.976 2.712C5.95467 2.73333 5.912 2.76 5.848 2.792C5.784 2.824 5.72533 2.84 5.672 2.84C5.62933 2.84 5.59733 2.85067 5.576 2.872C5.576 2.88267 5.55467 2.888 5.512 2.888C5.512 2.92 5.49067 2.92533 5.448 2.904C5.40533 2.904 5.384 2.90933 5.384 2.92C5.384 2.94133 5.37333 2.952 5.352 2.952C5.33067 2.952 5.29333 2.968 5.24 3C5.176 3.02133 5.11733 3.032 5.064 3.032C4.98933 3.04267 4.904 3.064 4.808 3.096C4.712 3.11733 4.65333 3.13867 4.632 3.16C4.632 3.18133 4.60533 3.18133 4.552 3.16C4.50933 3.16 4.488 3.16533 4.488 3.176C4.488 3.208 4.46133 3.21333 4.408 3.192C4.38667 3.192 4.35467 3.192 4.312 3.192C4.26933 3.192 4.232 3.20267 4.2 3.224C3.98667 3.27733 3.832 3.304 3.736 3.304C3.68267 3.304 3.65067 3.31467 3.64 3.336C3.62933 3.35733 3.61867 3.41067 3.608 3.496C3.59733 3.624 3.58667 3.736 3.576 3.832C3.56533 3.928 3.54933 3.98667 3.528 4.008C3.528 4.01867 3.52267 4.04 3.512 4.072C3.512 4.09333 3.512 4.12 3.512 4.152C3.52267 4.17333 3.52267 4.19467 3.512 4.216C3.512 4.23733 3.512 4.25333 3.512 4.264C3.50133 4.27467 3.49067 4.30667 3.48 4.36C3.48 4.41333 3.48 4.472 3.48 4.536C3.48 4.61067 3.47467 4.68533 3.464 4.76C3.45333 4.824 3.43733 4.89333 3.416 4.968C3.416 5.05333 3.39467 5.10667 3.352 5.128C3.33067 5.13867 3.32533 5.16 3.336 5.192C3.35733 5.21333 3.36267 5.26133 3.352 5.336C3.352 5.41067 3.34667 5.49067 3.336 5.576C3.336 5.66133 3.32533 5.736 3.304 5.8C3.29333 5.864 3.27733 5.896 3.256 5.896C3.23467 5.896 3.224 5.912 3.224 5.944C3.224 5.96533 3.24 5.97067 3.272 5.96C3.304 5.96 3.352 5.94933 3.416 5.928C3.49067 5.90667 3.53333 5.88533 3.544 5.864C3.544 5.85333 3.54933 5.848 3.56 5.848C3.58133 5.83733 3.59733 5.83733 3.608 5.848C3.64 5.85867 3.656 5.848 3.656 5.816C3.64533 5.77333 3.672 5.74133 3.736 5.72C3.81067 5.69867 3.86933 5.672 3.912 5.64C3.95467 5.608 4.01333 5.58133 4.088 5.56C4.152 5.53867 4.18933 5.52267 4.2 5.512C4.21067 5.512 4.216 5.512 4.216 5.512C4.23733 5.49067 4.25333 5.49067 4.264 5.512C4.30667 5.52267 4.328 5.512 4.328 5.48C4.328 5.45867 4.36 5.432 4.424 5.4C4.49867 5.35733 4.62667 5.30933 4.808 5.256C4.84 5.23467 4.856 5.21867 4.856 5.208C4.856 5.18667 4.87733 5.18667 4.92 5.208C4.96267 5.21867 4.99467 5.23467 5.016 5.256C5.03733 5.26667 5.05333 5.25067 5.064 5.208C5.07467 5.15467 5.09067 5.128 5.112 5.128C5.13333 5.11733 5.19733 5.10133 5.304 5.08C5.38933 5.05867 5.448 5.06933 5.48 5.112C5.52267 5.13333 5.54933 5.144 5.56 5.144C5.58133 5.12267 5.59733 5.13333 5.608 5.176C5.62933 5.21867 5.62933 5.256 5.608 5.288C5.59733 5.32 5.608 5.336 5.64 5.336C5.66133 5.336 5.66133 5.37333 5.64 5.448C5.61867 5.512 5.58133 5.576 5.528 5.64C5.47467 5.69333 5.43733 5.70933 5.416 5.688C5.40533 5.67733 5.39467 5.67733 5.384 5.688C5.384 5.688 5.38933 5.69333 5.4 5.704C5.41067 5.72533 5.40533 5.74667 5.384 5.768C5.36267 5.78933 5.29333 5.82667 5.176 5.88C5.10133 5.912 5.064 5.944 5.064 5.976C5.096 6.008 5.07467 6.024 5 6.024C4.94667 6.04533 4.92 6.06667 4.92 6.088C4.92 6.10933 4.93067 6.10933 4.952 6.088C4.984 6.06667 5.05333 6.056 5.16 6.056C5.26667 6.056 5.31467 6.06667 5.304 6.088C5.28267 6.13067 5.22933 6.18933 5.144 6.264C5.06933 6.33867 5.00533 6.392 4.952 6.424C4.888 6.46667 4.856 6.49867 4.856 6.52C4.856 6.54133 4.83467 6.568 4.792 6.6C4.76 6.62133 4.72267 6.64267 4.68 6.664C4.63733 6.68533 4.59467 6.70133 4.552 6.712C4.50933 6.712 4.48267 6.70667 4.472 6.696C4.42933 6.632 4.39733 6.64267 4.376 6.728C4.35467 6.792 4.28533 6.85067 4.168 6.904C4.06133 6.94667 3.98667 6.94667 3.944 6.904C3.912 6.872 3.896 6.88267 3.896 6.936C3.896 6.97867 3.87467 7.00533 3.832 7.016C3.81067 7.02667 3.78933 7.03733 3.768 7.048C3.75733 7.05867 3.74133 7.06933 3.72 7.08C3.70933 7.112 3.66667 7.128 3.592 7.128C3.51733 7.128 3.448 7.144 3.384 7.176C3.29867 7.208 3.23467 7.21333 3.192 7.192C3.16 7.17067 3.13867 7.17067 3.128 7.192C3.128 7.20267 3.12267 7.26667 3.112 7.384C3.10133 7.53333 3.09067 7.63467 3.08 7.688C3.06933 7.74133 3.048 7.77867 3.016 7.8C2.984 7.82133 2.984 7.832 3.016 7.832C3.048 7.832 3.05867 7.87467 3.048 7.96C3.048 8.03467 3.032 8.09333 3 8.136C2.97867 8.15733 2.984 8.17333 3.016 8.184C3.048 8.184 3.048 8.216 3.016 8.28C2.99467 8.30133 2.984 8.328 2.984 8.36C2.984 8.38133 2.984 8.40267 2.984 8.424C3.016 8.488 2.98933 8.54667 2.904 8.6C2.86133 8.62133 2.86133 8.632 2.904 8.632C2.94667 8.632 2.968 8.696 2.968 8.824C2.968 8.94133 2.952 9.02667 2.92 9.08C2.89867 9.10133 2.89333 9.13867 2.904 9.192C2.904 9.23467 2.888 9.26667 2.856 9.288C2.83467 9.30933 2.824 9.34133 2.824 9.384C2.824 9.416 2.79733 9.448 2.744 9.48C2.68 9.512 2.648 9.55467 2.648 9.608C2.63733 9.62933 2.632 9.66133 2.632 9.704C2.632 9.74667 2.62667 9.784 2.616 9.816C2.616 9.83733 2.61067 9.87467 2.6 9.928C2.6 9.98133 2.59467 10.0347 2.584 10.088C2.584 10.2053 2.57333 10.2853 2.552 10.328C2.54133 10.3493 2.536 10.376 2.536 10.408C2.536 10.4293 2.536 10.4453 2.536 10.456C2.536 10.4773 2.536 10.504 2.536 10.536C2.536 10.568 2.52533 10.6107 2.504 10.664C2.48267 10.7707 2.472 10.8507 2.472 10.904C2.48267 10.9893 2.46667 11.0587 2.424 11.112C2.38133 11.176 2.33867 11.1867 2.296 11.144C2.25333 11.112 2.232 11.1067 2.232 11.128C2.232 11.1493 2.216 11.16 2.184 11.16C2.152 11.16 2.136 11.1707 2.136 11.192C2.136 11.2667 2.104 11.2613 2.04 11.176C1.976 11.1013 1.96 11.032 1.992 10.968C2.00267 10.936 2.00267 10.8987 1.992 10.856C1.96 10.8133 1.96 10.776 1.992 10.744C2.01333 10.7227 2.024 10.6693 2.024 10.584C2.03467 10.4987 2.04 10.44 2.04 10.408C2.06133 10.3867 2.072 10.3173 2.072 10.2C2.072 10.0827 2.08267 9.98133 2.104 9.896C2.104 9.87467 2.10933 9.832 2.12 9.768C2.13067 9.69333 2.136 9.624 2.136 9.56C2.14667 9.496 2.15733 9.432 2.168 9.368C2.17867 9.29333 2.184 9.24 2.184 9.208C2.20533 9.12267 2.216 9.00533 2.216 8.856C2.22667 8.792 2.232 8.73867 2.232 8.696C2.24267 8.64267 2.248 8.61067 2.248 8.6C2.26933 8.57867 2.264 8.568 2.232 8.568C2.2 8.568 2.18933 8.52533 2.2 8.44C2.21067 8.35467 2.232 8.296 2.264 8.264C2.30667 8.232 2.328 8.216 2.328 8.216C2.328 8.20533 2.30667 8.2 2.264 8.2C2.24267 8.2 2.22667 8.16267 2.216 8.088C2.20533 8.00267 2.2 7.90667 2.2 7.8C2.2 7.69333 2.20533 7.58667 2.216 7.48C2.22667 7.37333 2.23733 7.29867 2.248 7.256C2.28 7.21333 2.28533 7.16533 2.264 7.112C2.24267 7.08 2.23733 7.04267 2.248 7C2.25867 6.94667 2.28 6.904 2.312 6.872C2.35467 6.82933 2.35467 6.808 2.312 6.808C2.28 6.808 2.26933 6.792 2.28 6.76C2.28 6.70667 2.29067 6.616 2.312 6.488C2.344 6.34933 2.37067 6.25333 2.392 6.2C2.43467 6.14667 2.44533 6.10933 2.424 6.088C2.40267 6.06667 2.392 6.03467 2.392 5.992C2.40267 5.94933 2.41867 5.91733 2.44 5.896C2.46133 5.88533 2.46667 5.87467 2.456 5.864C2.424 5.85333 2.41867 5.82667 2.44 5.784C2.44 5.76267 2.44533 5.736 2.456 5.704C2.46667 5.672 2.472 5.63467 2.472 5.592C2.48267 5.51733 2.49867 5.432 2.52 5.336C2.552 5.22933 2.57867 5.16 2.6 5.128C2.62133 5.11733 2.632 5.10667 2.632 5.096C2.632 5.08533 2.62133 5.08 2.6 5.08C2.57867 5.05867 2.584 5.016 2.616 4.952C2.63733 4.90933 2.648 4.88267 2.648 4.872C2.648 4.86133 2.648 4.85067 2.648 4.84C2.616 4.84 2.62133 4.82933 2.664 4.808C2.68533 4.76533 2.696 4.72267 2.696 4.68C2.696 4.62667 2.70667 4.57333 2.728 4.52C2.76 4.46667 2.78667 4.44 2.808 4.44C2.84 4.44 2.856 4.41333 2.856 4.36C2.856 4.30667 2.872 4.27467 2.904 4.264C2.97867 4.25333 3.016 4.17867 3.016 4.04C3.02667 4.01867 3.032 3.99733 3.032 3.976C3.04267 3.944 3.05333 3.91733 3.064 3.896C3.096 3.864 3.096 3.83733 3.064 3.816C3.05333 3.784 3.05333 3.76267 3.064 3.752C3.064 3.74133 3.064 3.72533 3.064 3.704C3.07467 3.672 3.08 3.64533 3.08 3.624C3.06933 3.56 3.07467 3.50133 3.096 3.448C3.11733 3.40533 3.11733 3.368 3.096 3.336C3.08533 3.304 3.06933 3.30933 3.048 3.352C3.02667 3.37333 2.952 3.38933 2.824 3.4C2.696 3.41067 2.616 3.40533 2.584 3.384C2.56267 3.36267 2.47733 3.36267 2.328 3.384C2.264 3.39467 2.19467 3.4 2.12 3.4C2.056 3.4 2.008 3.4 1.976 3.4C1.90133 3.4 1.864 3.41067 1.864 3.432C1.864 3.464 1.84267 3.48 1.8 3.48C1.77867 3.46933 1.752 3.46933 1.72 3.48C1.688 3.48 1.656 3.48533 1.624 3.496C1.56 3.528 1.47467 3.544 1.368 3.544C1.28267 3.544 1.23467 3.56533 1.224 3.608C1.21333 3.65067 1.17067 3.672 1.096 3.672C1.032 3.66133 0.978667 3.62933 0.936 3.576C0.904 3.544 0.888 3.52267 0.888 3.512C0.888 3.49067 0.904 3.45867 0.936 3.416C0.957333 3.36267 0.968 3.33067 0.968 3.32C0.968 3.30933 0.946667 3.29333 0.904 3.272C0.861333 3.24 0.84 3.224 0.84 3.224C0.84 3.21333 0.866667 3.19733 0.92 3.176ZM4.744 2.68C4.776 2.72267 4.792 2.71733 4.792 2.664C4.792 2.62133 4.78133 2.61067 4.76 2.632C4.74933 2.64267 4.744 2.65867 4.744 2.68ZM4.168 6.072C4.18933 6.05067 4.18933 6.03467 4.168 6.024C4.15733 6.01333 4.152 6.01867 4.152 6.04C4.152 6.06133 4.15733 6.072 4.168 6.072ZM5.24 2.488C5.25067 2.488 5.256 2.48267 5.256 2.472H5.224C5.23467 2.48267 5.24 2.488 5.24 2.488ZM8.49013 1.72C8.51146 1.70933 8.52213 1.704 8.52213 1.704C8.52213 1.68267 8.54879 1.66133 8.60213 1.64C8.65546 1.61867 8.70346 1.608 8.74613 1.608C8.78879 1.608 8.82079 1.59733 8.84213 1.576C8.86346 1.55467 8.91146 1.53333 8.98613 1.512C9.19946 1.45867 9.29546 1.416 9.27413 1.384C9.26346 1.37333 9.28479 1.35733 9.33813 1.336C9.40213 1.31467 9.43946 1.29333 9.45013 1.272C9.46079 1.26133 9.48746 1.26667 9.53013 1.288C9.57279 1.30933 9.61546 1.29867 9.65813 1.256C9.69013 1.224 9.74879 1.19733 9.83413 1.176C9.91946 1.15467 9.96213 1.13867 9.96213 1.128C9.97279 1.11733 9.98879 1.112 10.0101 1.112C10.0315 1.09067 10.0581 1.08 10.0901 1.08C10.2181 1.016 10.3408 0.983999 10.4581 0.983999C10.5861 1.00533 10.6661 1 10.6981 0.967999C10.7195 0.946666 10.7461 0.946666 10.7781 0.967999C10.8208 0.978666 10.8581 0.999999 10.8901 1.032C10.9328 1.064 10.9648 1.10133 10.9861 1.144C11.0075 1.176 11.0128 1.208 11.0021 1.24C11.0021 1.26133 10.9968 1.28267 10.9861 1.304C10.9861 1.31467 10.9861 1.32533 10.9861 1.336C10.9861 1.35733 10.9755 1.35733 10.9541 1.336C10.9115 1.304 10.8368 1.368 10.7301 1.528C10.6875 1.60267 10.6341 1.66133 10.5701 1.704C10.5168 1.736 10.4795 1.74133 10.4581 1.72C10.4368 1.72 10.4155 1.736 10.3941 1.768C10.3728 1.78933 10.3301 1.80533 10.2661 1.816C10.2128 1.82667 10.1701 1.82667 10.1381 1.816C10.1381 1.80533 10.1221 1.816 10.0901 1.848C10.0688 1.89067 10.0368 1.912 9.99413 1.912C9.95146 1.912 9.90879 1.93867 9.86613 1.992C9.83413 2.03467 9.81813 2.08267 9.81813 2.136C9.81813 2.168 9.80746 2.184 9.78613 2.184C9.76479 2.184 9.75413 2.20533 9.75413 2.248C9.75413 2.29067 9.77013 2.312 9.80213 2.312C9.81279 2.312 9.82346 2.33867 9.83413 2.392C9.84479 2.43467 9.85013 2.488 9.85013 2.552C9.86079 2.616 9.86079 2.68 9.85013 2.744C9.85013 2.808 9.84479 2.85067 9.83413 2.872C9.83413 2.91467 9.83946 2.94667 9.85013 2.968C9.86079 2.98933 9.87146 3.03733 9.88213 3.112C9.89279 3.18667 9.89813 3.272 9.89813 3.368C9.89813 3.45333 9.89813 3.53867 9.89813 3.624C9.89813 3.69867 9.89279 3.752 9.88213 3.784C9.85013 3.82667 9.85546 3.85867 9.89813 3.88C9.96213 3.944 9.95679 4.01333 9.88213 4.088C9.85013 4.12 9.85013 4.14133 9.88213 4.152C9.90346 4.17333 9.91413 4.2 9.91413 4.232C9.92479 4.264 9.93013 4.36 9.93013 4.52C9.94079 4.66933 9.94079 4.76533 9.93013 4.808C9.93013 4.84 9.91413 4.86667 9.88213 4.888C9.85013 4.89867 9.85546 4.91467 9.89813 4.936C9.91946 4.94667 9.93546 4.984 9.94613 5.048C9.95679 5.10133 9.96213 5.16533 9.96213 5.24C9.97279 5.31467 9.97813 5.38933 9.97813 5.464C9.97813 5.528 9.96746 5.57067 9.94613 5.592C9.92479 5.61333 9.91413 5.64533 9.91413 5.688C9.91413 5.72 9.92479 5.736 9.94613 5.736C9.95679 5.736 9.96213 5.79467 9.96213 5.912C9.94079 6.02933 9.94613 6.088 9.97813 6.088C9.98879 6.09867 9.98346 6.12533 9.96213 6.168C9.94079 6.21067 9.94079 6.25867 9.96213 6.312C9.98346 6.38667 9.98346 6.45067 9.96213 6.504C9.94079 6.568 9.94079 6.61067 9.96213 6.632C9.98346 6.64267 9.98346 6.66933 9.96213 6.712C9.94079 6.75467 9.91946 6.78667 9.89813 6.808C9.85546 6.81867 9.83413 6.83467 9.83413 6.856C9.84479 6.86667 9.86613 6.872 9.89813 6.872C9.94079 6.872 9.96213 6.92 9.96213 7.016C9.97279 7.10133 9.97279 7.28267 9.96213 7.56V8.328C9.95146 8.49867 9.94613 8.632 9.94613 8.728C9.94613 8.824 9.93546 8.88267 9.91413 8.904C9.89279 8.94667 9.89279 8.97333 9.91413 8.984C9.97813 9.00533 9.98346 9.10667 9.93013 9.288C9.90879 9.352 9.90879 9.39467 9.93013 9.416C9.96213 9.448 9.96746 9.51733 9.94613 9.624C9.94613 9.67733 9.94079 9.736 9.93013 9.8C9.93013 9.85333 9.93013 9.90133 9.93013 9.944C9.90879 10.0507 9.89279 10.1147 9.88213 10.136C9.85013 10.1573 9.85013 10.184 9.88213 10.216C9.91413 10.248 9.91946 10.2747 9.89813 10.296C9.86613 10.328 9.85546 10.3547 9.86613 10.376C9.86613 10.408 9.86079 10.4293 9.85013 10.44C9.81813 10.472 9.81279 10.488 9.83413 10.488L9.81813 10.504C9.81813 10.504 9.80746 10.5253 9.78613 10.568C9.70079 10.6853 9.67413 10.7813 9.70613 10.856C9.74879 10.92 9.81279 10.8987 9.89813 10.792C9.91946 10.76 9.96746 10.76 10.0421 10.792C10.1275 10.824 10.1701 10.8613 10.1701 10.904C10.1701 10.9573 10.1755 10.984 10.1861 10.984C10.2395 10.984 10.2555 11.0213 10.2341 11.096C10.2128 11.1813 10.1648 11.256 10.0901 11.32C10.0475 11.3627 10.0368 11.384 10.0581 11.384C10.0901 11.384 10.0688 11.4213 9.99413 11.496C9.90879 11.56 9.85546 11.592 9.83413 11.592C9.82346 11.592 9.81813 11.608 9.81813 11.64C9.81813 11.672 9.79679 11.688 9.75413 11.688C9.71146 11.688 9.69013 11.7147 9.69013 11.768C9.66879 11.8 9.64213 11.8267 9.61013 11.848C9.57813 11.848 9.55146 11.864 9.53013 11.896C9.50879 11.928 9.47146 11.9493 9.41813 11.96C9.37546 11.96 9.33813 11.976 9.30613 12.008C9.22079 12.0827 9.11413 12.1573 8.98613 12.232C8.85813 12.3067 8.77279 12.344 8.73013 12.344C8.66613 12.344 8.63413 12.3547 8.63413 12.376C8.63413 12.408 8.60746 12.408 8.55413 12.376C8.53279 12.376 8.52213 12.3547 8.52213 12.312C8.52213 12.2907 8.49546 12.2693 8.44213 12.248C8.33546 12.248 8.29813 12.216 8.33013 12.152C8.35146 12.0987 8.35679 12.072 8.34613 12.072C8.34613 12.04 8.36746 12.008 8.41013 11.976C8.46346 11.944 8.49013 11.912 8.49013 11.88C8.49013 11.848 8.51679 11.7947 8.57013 11.72C8.63413 11.656 8.68213 11.624 8.71413 11.624C8.74613 11.624 8.76213 11.6133 8.76213 11.592C8.78346 11.5707 8.83146 11.56 8.90613 11.56C8.99146 11.5387 9.03413 11.5173 9.03413 11.496C9.05546 11.464 9.09279 11.4267 9.14613 11.384C9.18879 11.352 9.21013 11.3253 9.21013 11.304C9.22079 11.2827 9.22613 11.2347 9.22613 11.16C9.21546 11.064 9.23146 10.9947 9.27413 10.952C9.33813 10.8667 9.32746 10.824 9.24213 10.824C9.22079 10.824 9.20479 10.8027 9.19413 10.76C9.19413 10.7067 9.19413 10.5947 9.19413 10.424C9.19413 10.3067 9.19413 10.184 9.19413 10.056C9.19413 9.91733 9.18879 9.80533 9.17813 9.72C9.16746 9.63467 9.16213 9.54933 9.16213 9.464C9.16213 9.368 9.15679 9.29333 9.14613 9.24C9.14613 9.12267 9.13546 9.04267 9.11413 9C9.09279 8.968 9.09813 8.936 9.13013 8.904C9.15146 8.88267 9.15679 8.85067 9.14613 8.808C9.13546 8.75467 9.11946 8.728 9.09813 8.728C9.07679 8.728 9.06613 8.70667 9.06613 8.664C9.07679 8.62133 9.09813 8.59467 9.13013 8.584C9.15146 8.57333 9.14613 8.552 9.11413 8.52C9.08213 8.49867 9.06079 8.44 9.05013 8.344C9.05013 8.23733 9.04479 8.00267 9.03413 7.64C9.02346 7.512 9.01813 7.4 9.01813 7.304C9.01813 7.208 9.01279 7.15467 9.00213 7.144V6.776C9.01279 6.53067 9.01813 6.36533 9.01813 6.28C9.01813 6.19467 9.01279 6.104 9.00213 6.008C9.00213 5.95467 9.00213 5.90133 9.00213 5.848C9.00213 5.784 9.00746 5.73067 9.01813 5.688C9.01813 5.592 9.01279 5.53867 9.00213 5.528C8.99146 5.51733 8.98613 5.48533 8.98613 5.432C8.98613 5.37867 8.99146 5.32 9.00213 5.256C9.01279 5.192 9.02346 5.13333 9.03413 5.08C9.05546 5.016 9.07146 4.97867 9.08213 4.968C9.11413 4.936 9.13013 4.92 9.13013 4.92C9.13013 4.90933 9.11413 4.89867 9.08213 4.888C9.03946 4.87733 9.01279 4.856 9.00213 4.824C9.00213 4.78133 9.01813 4.74933 9.05013 4.728C9.08213 4.728 9.08213 4.712 9.05013 4.68C9.03946 4.66933 9.03413 4.648 9.03413 4.616C9.03413 4.584 9.03413 4.552 9.03413 4.52C9.03413 4.47733 9.03413 4.41333 9.03413 4.328C9.03413 4.24267 9.03413 4.152 9.03413 4.056C9.04479 3.96 9.05546 3.87467 9.06613 3.8C9.07679 3.71467 9.08746 3.656 9.09813 3.624C9.11946 3.60267 9.13013 3.544 9.13013 3.448C9.14079 3.30933 9.19413 3.24 9.29013 3.24C9.34346 3.24 9.37013 3.22933 9.37013 3.208C9.34879 3.176 9.35413 3.144 9.38613 3.112C9.40746 3.08 9.40746 3.05333 9.38613 3.032C9.37546 3.02133 9.36479 2.98933 9.35413 2.936C9.35413 2.872 9.35413 2.808 9.35413 2.744C9.35413 2.68 9.35946 2.62133 9.37013 2.568C9.38079 2.504 9.39146 2.472 9.40213 2.472C9.43413 2.472 9.45013 2.456 9.45013 2.424C9.45013 2.41333 9.43946 2.408 9.41813 2.408C9.39679 2.42933 9.37546 2.424 9.35413 2.392C9.33279 2.34933 9.32213 2.30133 9.32213 2.248C9.32213 2.17333 9.30613 2.12533 9.27413 2.104C9.24213 2.08267 9.21013 2.09333 9.17813 2.136C9.14613 2.17867 9.07146 2.2 8.95413 2.2C8.90079 2.2 8.85279 2.2 8.81013 2.2C8.77813 2.2 8.75679 2.21067 8.74613 2.232C8.71413 2.24267 8.69813 2.24267 8.69813 2.232C8.69813 2.22133 8.67146 2.232 8.61813 2.264C8.49013 2.33867 8.42613 2.32267 8.42613 2.216C8.42613 2.17333 8.40479 2.152 8.36213 2.152C8.33013 2.14133 8.31413 2.11467 8.31413 2.072C8.30346 2.02933 8.30879 1.98133 8.33013 1.928C8.34079 1.87467 8.36213 1.82667 8.39413 1.784C8.42613 1.74133 8.45813 1.72 8.49013 1.72ZM11.4718 11.448C11.4931 11.4267 11.4931 11.416 11.4718 11.416C11.4504 11.416 11.4398 11.384 11.4398 11.32C11.4398 11.256 11.4504 11.2027 11.4718 11.16C11.4931 11.128 11.4878 11.112 11.4558 11.112C11.4344 11.112 11.4291 11.0853 11.4398 11.032C11.4611 10.9787 11.4824 10.9307 11.5038 10.888C11.5464 10.8453 11.5518 10.7867 11.5198 10.712C11.4984 10.6907 11.4931 10.664 11.5038 10.632C11.5144 10.6 11.5304 10.584 11.5518 10.584C11.5624 10.584 11.5784 10.5573 11.5998 10.504C11.5998 10.4507 11.5944 10.424 11.5838 10.424C11.5624 10.424 11.5518 10.4027 11.5518 10.36C11.5518 10.3173 11.5624 10.2853 11.5838 10.264C11.5944 10.2533 11.5998 10.232 11.5998 10.2C11.5998 10.168 11.6051 10.1307 11.6158 10.088C11.6158 10.0453 11.6158 10.008 11.6158 9.976C11.6264 9.93333 11.6318 9.90667 11.6318 9.896C11.6531 9.87467 11.6638 9.84267 11.6638 9.8C11.6744 9.768 11.6851 9.69867 11.6958 9.592C11.7064 9.47467 11.7171 9.352 11.7278 9.224C11.7384 9.096 11.7438 8.97333 11.7438 8.856C11.7544 8.73867 11.7598 8.664 11.7598 8.632C11.7811 8.32267 11.7918 8.09867 11.7918 7.96C11.8024 7.81067 11.8131 7.70933 11.8238 7.656C11.8451 7.58133 11.8504 7.528 11.8398 7.496C11.8398 7.44267 11.8451 7.40533 11.8558 7.384C11.8664 7.36267 11.8718 7.336 11.8718 7.304C11.8718 7.304 11.8718 7.27733 11.8718 7.224C11.8824 7.17067 11.8931 7.112 11.9038 7.048C11.9144 6.984 11.9198 6.92 11.9198 6.856C11.9304 6.78133 11.9411 6.72267 11.9518 6.68C11.9624 6.59467 11.9678 6.51467 11.9678 6.44C11.9784 6.36533 11.9891 6.28533 11.9998 6.2C12.0211 6.08267 12.0424 6.01333 12.0638 5.992C12.1064 5.97067 12.1118 5.944 12.0798 5.912C12.0584 5.85867 12.0531 5.80533 12.0638 5.752C12.0851 5.66667 12.0958 5.58133 12.0958 5.496C12.1171 5.38933 12.1278 5.30933 12.1278 5.256C12.1491 5.17067 12.1598 5.05333 12.1598 4.904C12.1704 4.84 12.1758 4.776 12.1758 4.712C12.1864 4.63733 12.1971 4.584 12.2078 4.552C12.2078 4.50933 12.2078 4.45067 12.2078 4.376C12.2184 4.30133 12.2184 4.22133 12.2078 4.136C12.1864 3.93333 12.1864 3.816 12.2078 3.784C12.2291 3.752 12.2238 3.72 12.1918 3.688C12.1598 3.66667 12.1491 3.61867 12.1598 3.544C12.1598 3.45867 12.1438 3.39467 12.1118 3.352C12.0904 3.33067 12.0744 3.304 12.0638 3.272C12.0531 3.24 12.0424 3.208 12.0318 3.176C12.0318 3.09067 12.0211 3.03733 11.9998 3.016C11.9784 2.984 11.9731 2.936 11.9838 2.872C12.0051 2.79733 12.0318 2.74933 12.0638 2.728C12.0851 2.71733 12.1064 2.70667 12.1278 2.696C12.1491 2.67467 12.1704 2.65867 12.1918 2.648C12.2238 2.616 12.2611 2.6 12.3038 2.6C12.3144 2.6 12.3251 2.584 12.3358 2.552C12.3464 2.52 12.3571 2.48267 12.3678 2.44C12.3784 2.38667 12.3838 2.33867 12.3838 2.296C12.3838 2.25333 12.3731 2.22667 12.3518 2.216C12.3411 2.20533 12.3358 2.17867 12.3358 2.136C12.3358 2.09333 12.3464 2.06133 12.3678 2.04C12.3784 2.02933 12.3731 2.01333 12.3518 1.992C12.3304 1.98133 12.3411 1.94933 12.3838 1.896C12.4264 1.85333 12.4478 1.816 12.4478 1.784C12.4478 1.76267 12.4691 1.74667 12.5118 1.736C12.5651 1.71467 12.6131 1.71467 12.6558 1.736C12.6984 1.75733 12.7358 1.768 12.7678 1.768C12.7891 1.768 12.8104 1.80533 12.8318 1.88C12.8638 1.944 12.8798 2.01867 12.8798 2.104C12.8798 2.17867 12.9011 2.21067 12.9438 2.2C12.9651 2.18933 13.0291 2.17333 13.1358 2.152C13.2531 2.13067 13.3171 2.12 13.3278 2.12C13.3384 2.12 13.3438 2.104 13.3438 2.072C13.3438 1.96533 13.3864 1.912 13.4718 1.912C13.5251 1.912 13.6158 1.90133 13.7438 1.88C13.8824 1.85867 13.9784 1.84267 14.0318 1.832C14.1064 1.8 14.1758 1.78933 14.2398 1.8C14.3038 1.8 14.3411 1.816 14.3518 1.848C14.3624 1.89067 14.3678 1.912 14.3678 1.912C14.3678 1.90133 14.3784 1.87467 14.3998 1.832C14.4211 1.768 14.4744 1.72 14.5598 1.688C14.6558 1.656 14.7198 1.66667 14.7518 1.72C14.7731 1.74133 14.8158 1.74667 14.8798 1.736C14.9331 1.72533 14.9758 1.736 15.0078 1.768C15.0398 1.82133 15.1464 1.82667 15.3278 1.784C15.4024 1.76267 15.4504 1.752 15.4718 1.752C15.4931 1.752 15.5144 1.77333 15.5358 1.816C15.5784 1.85867 15.6211 1.86933 15.6638 1.848C15.7064 1.82667 15.7331 1.82133 15.7438 1.832C15.7544 1.832 15.7598 1.864 15.7598 1.928C15.7598 2.01333 15.7224 2.09867 15.6478 2.184C15.5838 2.26933 15.5091 2.312 15.4238 2.312C15.3918 2.312 15.3758 2.32267 15.3758 2.344C15.3758 2.344 15.3544 2.35467 15.3118 2.376C15.2798 2.38667 15.2371 2.40267 15.1838 2.424C15.1411 2.43467 15.0931 2.44533 15.0398 2.456C14.9971 2.456 14.9704 2.456 14.9598 2.456C14.9491 2.456 14.9278 2.46133 14.8958 2.472C14.8744 2.48267 14.8478 2.49333 14.8158 2.504C14.7304 2.54667 14.6664 2.568 14.6238 2.568C14.5918 2.54667 14.5544 2.55733 14.5118 2.6C14.4904 2.62133 14.4638 2.63733 14.4318 2.648C14.4104 2.648 14.3891 2.65333 14.3678 2.664C14.3464 2.67467 14.3091 2.68533 14.2558 2.696C14.2131 2.696 14.1758 2.70667 14.1438 2.728C13.9731 2.792 13.8024 2.824 13.6318 2.824C13.5358 2.824 13.4771 2.83467 13.4558 2.856C13.4558 2.888 13.4131 2.904 13.3278 2.904C13.1144 2.936 12.9864 2.96267 12.9438 2.984C12.9118 3.00533 12.8958 3.05867 12.8958 3.144C12.8958 3.32533 12.8904 3.50133 12.8798 3.672C12.8798 3.84267 12.8744 3.93867 12.8638 3.96C12.8531 3.97067 12.8424 4.01867 12.8318 4.104C12.8318 4.18933 12.8318 4.29067 12.8318 4.408C12.8318 4.62133 12.8264 4.792 12.8158 4.92C12.8158 5.03733 12.8051 5.14933 12.7838 5.256C12.7624 5.34133 12.7464 5.45333 12.7358 5.592C12.7251 5.72 12.7198 5.82667 12.7198 5.912C12.7304 5.944 12.7304 5.976 12.7198 6.008C12.7198 6.04 12.7091 6.056 12.6878 6.056C12.6664 6.07733 12.6718 6.09333 12.7038 6.104C12.7251 6.11467 12.7251 6.14667 12.7038 6.2C12.6824 6.22133 12.6718 6.248 12.6718 6.28C12.6718 6.312 12.6718 6.344 12.6718 6.376C12.6824 6.42933 12.6718 6.48267 12.6398 6.536C12.6184 6.6 12.6131 6.65333 12.6238 6.696C12.6344 6.73867 12.6291 6.78667 12.6078 6.84C12.5971 6.88267 12.5971 6.90933 12.6078 6.92C12.6184 6.93067 12.6238 6.952 12.6238 6.984C12.6131 7.016 12.6344 7.032 12.6878 7.032C12.7411 7.032 12.7678 7.02133 12.7678 7C12.7678 6.98933 12.7784 6.984 12.7998 6.984C12.8318 6.99467 12.8478 6.99467 12.8478 6.984C12.8478 6.94133 12.9224 6.90933 13.0718 6.888C13.1251 6.888 13.1518 6.87733 13.1518 6.856C13.1731 6.824 13.2104 6.808 13.2638 6.808C13.3491 6.808 13.4131 6.78667 13.4558 6.744C13.5091 6.712 13.5571 6.696 13.5998 6.696C13.6318 6.70667 13.6478 6.70133 13.6478 6.68C13.6478 6.62667 13.7278 6.58933 13.8878 6.568C14.0478 6.536 14.2184 6.52 14.3998 6.52C14.6451 6.52 14.8051 6.54667 14.8798 6.6C14.9224 6.64267 14.9438 6.68533 14.9438 6.728C14.9438 6.77067 14.9171 6.792 14.8638 6.792C14.8104 6.792 14.8104 6.81867 14.8638 6.872C14.8851 6.89333 14.8638 6.936 14.7998 7C14.7358 7.05333 14.6771 7.06933 14.6238 7.048C14.5811 7.048 14.5651 7.05867 14.5758 7.08C14.5758 7.112 14.5651 7.128 14.5438 7.128C14.5118 7.128 14.4958 7.13867 14.4958 7.16C14.4958 7.18133 14.4691 7.192 14.4158 7.192C14.3624 7.192 14.3358 7.19733 14.3358 7.208C14.3358 7.21867 14.3091 7.23467 14.2558 7.256C14.2024 7.27733 14.1384 7.29867 14.0638 7.32C13.9891 7.34133 13.9144 7.368 13.8398 7.4C13.7651 7.42133 13.7118 7.43733 13.6798 7.448C13.5944 7.48 13.4824 7.51733 13.3438 7.56C13.2051 7.60267 13.1251 7.624 13.1038 7.624C13.0718 7.624 13.0451 7.63467 13.0238 7.656C13.0238 7.688 13.0024 7.688 12.9598 7.656C12.9278 7.624 12.9011 7.624 12.8798 7.656C12.8691 7.67733 12.8424 7.67733 12.7998 7.656C12.7571 7.63467 12.7358 7.64 12.7358 7.672C12.7358 7.71467 12.7038 7.736 12.6398 7.736C12.5224 7.736 12.4584 7.86933 12.4478 8.136C12.4371 8.15733 12.4318 8.17867 12.4318 8.2C12.4318 8.22133 12.4264 8.24267 12.4158 8.264C12.4051 8.27467 12.3998 8.296 12.3998 8.328C12.4104 8.33867 12.4051 8.38133 12.3838 8.456C12.3518 8.50933 12.3464 8.54667 12.3678 8.568C12.3891 8.58933 12.3891 8.632 12.3678 8.696C12.3464 8.77067 12.3411 8.81867 12.3518 8.84C12.3518 8.85067 12.3411 8.89867 12.3198 8.984C12.2771 9.048 12.2664 9.096 12.2878 9.128C12.2878 9.17067 12.2824 9.19733 12.2718 9.208C12.2398 9.21867 12.2398 9.24 12.2718 9.272C12.2931 9.29333 12.2931 9.336 12.2718 9.4C12.2611 9.42133 12.2558 9.464 12.2558 9.528C12.2558 9.58133 12.2558 9.64 12.2558 9.704C12.2558 9.75733 12.2558 9.81067 12.2558 9.864C12.2558 9.90667 12.2504 9.93867 12.2398 9.96C12.2078 9.97067 12.2078 9.98667 12.2398 10.008C12.2504 10.0187 12.2558 10.0347 12.2558 10.056C12.2344 10.0773 12.2344 10.0987 12.2558 10.12C12.2664 10.1307 12.2718 10.2053 12.2718 10.344C12.2718 10.4613 12.2824 10.52 12.3038 10.52C12.3144 10.52 12.3198 10.552 12.3198 10.616C12.3091 10.648 12.3038 10.6853 12.3038 10.728C12.3144 10.7707 12.3251 10.8133 12.3358 10.856C12.3784 10.9307 12.3891 10.9787 12.3678 11C12.3571 11 12.3624 11.0213 12.3838 11.064C12.4051 11.0853 12.4158 11.128 12.4158 11.192C12.4158 11.2453 12.4318 11.2773 12.4638 11.288C12.4958 11.288 12.5118 11.272 12.5118 11.24C12.5118 11.208 12.5331 11.192 12.5758 11.192C12.6291 11.192 12.6771 11.176 12.7198 11.144C12.7624 11.1227 12.7998 11.112 12.8318 11.112C12.8638 11.112 12.9011 11.0907 12.9438 11.048C12.9758 10.9947 13.0131 10.9787 13.0558 11C13.0878 11.0213 13.1038 11.0107 13.1038 10.968C13.1038 10.936 13.1251 10.92 13.1678 10.92C13.2211 10.92 13.2584 10.9093 13.2798 10.888C13.3011 10.856 13.3598 10.8133 13.4558 10.76C13.5518 10.7067 13.6424 10.6693 13.7278 10.648C13.8131 10.616 13.8664 10.5893 13.8878 10.568C13.8984 10.5467 13.9464 10.5147 14.0318 10.472C14.0531 10.4507 14.0798 10.4347 14.1118 10.424C14.1544 10.4133 14.1864 10.3973 14.2078 10.376C14.2291 10.3653 14.2504 10.3547 14.2718 10.344C14.3038 10.3333 14.3251 10.328 14.3358 10.328C14.3784 10.328 14.3998 10.3173 14.3998 10.296C14.3998 10.264 14.4211 10.2587 14.4638 10.28C14.5171 10.2907 14.5491 10.2747 14.5598 10.232C14.5811 10.1893 14.6184 10.168 14.6718 10.168C14.7358 10.1467 14.7678 10.1253 14.7678 10.104C14.7678 10.0827 14.7891 10.0667 14.8318 10.056C14.8744 10.0453 14.9064 10.04 14.9278 10.04C14.9491 10.04 14.9704 10.0293 14.9918 10.008C15.0131 9.976 15.0344 9.96 15.0558 9.96C15.1091 9.96 15.1411 9.944 15.1518 9.912C15.1838 9.88 15.2318 9.86933 15.2958 9.88C15.3384 9.89067 15.3758 9.89067 15.4078 9.88C15.4504 9.85867 15.4718 9.832 15.4718 9.8C15.4718 9.77867 15.4984 9.75733 15.5518 9.736C15.6158 9.704 15.6744 9.688 15.7278 9.688C15.7704 9.688 15.7918 9.672 15.7918 9.64C15.8131 9.608 15.8451 9.592 15.8878 9.592C15.9198 9.592 15.9411 9.58667 15.9518 9.576C15.9518 9.576 15.9571 9.576 15.9678 9.576C15.9678 9.55467 15.9944 9.53333 16.0478 9.512C16.1118 9.48 16.1544 9.464 16.1758 9.464C16.2078 9.464 16.2238 9.45867 16.2238 9.448C16.2238 9.43733 16.2718 9.41067 16.3678 9.368C16.4851 9.32533 16.5758 9.32533 16.6398 9.368C16.7144 9.41067 16.7304 9.47467 16.6878 9.56C16.6558 9.60267 16.6611 9.62933 16.7038 9.64C16.7464 9.66133 16.7464 9.704 16.7038 9.768C16.6611 9.832 16.6131 9.864 16.5598 9.864C16.5384 9.864 16.4958 9.896 16.4318 9.96C16.3678 10.0347 16.2878 10.0667 16.1918 10.056C16.1811 10.056 16.1651 10.088 16.1438 10.152C16.1224 10.216 16.1064 10.248 16.0958 10.248C16.0851 10.248 16.0478 10.2693 15.9838 10.312C15.8771 10.408 15.8131 10.456 15.7918 10.456C15.7704 10.456 15.7598 10.4667 15.7598 10.488C15.7598 10.4987 15.7384 10.5147 15.6958 10.536C15.6744 10.536 15.6211 10.5787 15.5358 10.664C15.4504 10.728 15.3918 10.76 15.3598 10.76C15.3384 10.76 15.3278 10.7707 15.3278 10.792C15.3278 10.8133 15.3118 10.824 15.2798 10.824C15.2691 10.824 15.2478 10.84 15.2158 10.872C15.1944 10.9147 15.1678 10.9253 15.1358 10.904C15.0931 10.904 15.0718 10.9147 15.0718 10.936C15.0718 10.9573 15.0504 10.9787 15.0078 11C14.9758 11.0213 14.9491 11.0213 14.9278 11C14.8958 10.968 14.8798 10.9733 14.8798 11.016C14.8584 11.0373 14.8264 11.0427 14.7838 11.032C14.7411 11.032 14.7198 11.0587 14.7198 11.112C14.7198 11.1547 14.6984 11.1813 14.6558 11.192C14.6131 11.2027 14.5704 11.192 14.5278 11.16C14.4958 11.1387 14.4851 11.1493 14.4958 11.192C14.5064 11.2347 14.4904 11.2613 14.4478 11.272C14.3944 11.2933 14.3678 11.3093 14.3678 11.32C14.3678 11.3413 14.3518 11.352 14.3198 11.352C14.2878 11.352 14.2451 11.368 14.1918 11.4C14.1704 11.4213 14.1384 11.432 14.0958 11.432C14.0531 11.4427 14.0104 11.4533 13.9678 11.464C13.8931 11.464 13.8451 11.4747 13.8238 11.496C13.8238 11.5067 13.8078 11.5173 13.7758 11.528C13.7438 11.5387 13.7118 11.5547 13.6798 11.576C13.5838 11.5973 13.5358 11.6187 13.5358 11.64L13.5038 11.656H13.4398C13.3758 11.656 13.3331 11.6667 13.3118 11.688C13.2691 11.7093 13.2104 11.72 13.1358 11.72C13.0611 11.72 13.0131 11.7307 12.9918 11.752C12.9704 11.7733 12.9331 11.784 12.8798 11.784C12.8584 11.784 12.8371 11.7893 12.8158 11.8C12.8051 11.8 12.7944 11.8 12.7838 11.8C12.7411 11.8533 12.5971 11.8693 12.3518 11.848C12.2131 11.848 12.1438 11.8587 12.1438 11.88C12.1438 11.8907 12.1011 11.896 12.0158 11.896C11.9304 11.896 11.8771 11.8907 11.8558 11.88C11.8451 11.8693 11.8184 11.864 11.7758 11.864C11.7544 11.8853 11.7438 11.88 11.7438 11.848C11.7438 11.8267 11.7278 11.816 11.6958 11.816C11.6424 11.816 11.5838 11.7627 11.5198 11.656C11.4664 11.56 11.4504 11.4907 11.4718 11.448ZM14.5118 10.68V10.648C14.5011 10.648 14.4958 10.6533 14.4958 10.664C14.4958 10.6747 14.5011 10.68 14.5118 10.68ZM17.2322 3.048C17.2749 3.02667 17.2962 3.016 17.2962 3.016C17.2962 3.00533 17.2749 2.97867 17.2322 2.936C17.2002 2.89333 17.2109 2.856 17.2642 2.824C17.3069 2.78133 17.3549 2.77067 17.4082 2.792C17.4402 2.80267 17.4562 2.78667 17.4562 2.744C17.4562 2.70133 17.4936 2.68 17.5682 2.68C17.6322 2.69067 17.6642 2.68 17.6642 2.648C17.6642 2.62667 17.6802 2.60533 17.7122 2.584C17.7549 2.56267 17.7976 2.54667 17.8402 2.536C17.8829 2.51467 17.9256 2.49867 17.9682 2.488C18.0109 2.47733 18.0376 2.47733 18.0482 2.488C18.0802 2.50933 18.1176 2.51467 18.1602 2.504C18.2029 2.48267 18.2242 2.45067 18.2242 2.408C18.2242 2.35467 18.2829 2.328 18.4002 2.328C18.4322 2.328 18.4482 2.32267 18.4482 2.312C18.4482 2.29067 18.4589 2.28 18.4802 2.28C18.5016 2.28 18.5549 2.25867 18.6402 2.216C18.7256 2.17333 18.7789 2.152 18.8002 2.152C18.8322 2.152 18.8429 2.12533 18.8322 2.072C18.8216 2.01867 18.8429 1.992 18.8962 1.992C19.0349 1.93867 19.1629 1.90667 19.2802 1.896C19.4616 1.864 19.6429 1.83733 19.8242 1.816C20.0162 1.79467 20.2029 1.784 20.3842 1.784C20.5549 1.784 20.7309 1.79467 20.9122 1.816C21.1042 1.82667 21.2802 1.84267 21.4402 1.864C21.4616 1.87467 21.4989 1.88 21.5522 1.88C21.6056 1.88 21.6589 1.88 21.7122 1.88C21.8189 1.88 21.8776 1.896 21.8882 1.928C21.8989 1.94933 21.9202 1.95467 21.9522 1.944C21.9629 1.912 22.0056 1.90667 22.0802 1.928C22.1122 1.93867 22.1496 1.944 22.1922 1.944C22.2242 1.944 22.2616 1.95467 22.3042 1.976C22.3469 1.99733 22.3842 2.008 22.4162 2.008C22.4589 1.99733 22.5282 2.01867 22.6242 2.072C22.7202 2.12533 22.7736 2.168 22.7842 2.2C22.7949 2.25333 22.8216 2.26933 22.8642 2.248C22.8962 2.216 22.9229 2.216 22.9442 2.248C22.9656 2.26933 22.9976 2.312 23.0402 2.376C23.0936 2.44 23.1309 2.48267 23.1522 2.504C23.1736 2.536 23.2002 2.59467 23.2322 2.68C23.2642 2.75467 23.2802 2.81333 23.2802 2.856C23.2802 2.89867 23.3069 2.92 23.3602 2.92C23.4029 2.92 23.4242 2.93067 23.4242 2.952C23.4242 2.984 23.4296 3.02133 23.4402 3.064C23.4616 3.10667 23.4829 3.13333 23.5042 3.144C23.5149 3.15467 23.5256 3.18133 23.5362 3.224C23.5469 3.26667 23.5522 3.32 23.5522 3.384C23.5522 3.43733 23.5522 3.49067 23.5522 3.544C23.5522 3.58667 23.5469 3.61333 23.5362 3.624C23.5149 3.64533 23.5042 3.67733 23.5042 3.72C23.5149 3.77333 23.5042 3.848 23.4722 3.944C23.4402 4.02933 23.4082 4.088 23.3762 4.12C23.3336 4.16267 23.3122 4.19467 23.3122 4.216C23.3122 4.25867 23.2856 4.30667 23.2322 4.36C23.1789 4.41333 23.1362 4.44533 23.1042 4.456C23.0616 4.456 23.0456 4.472 23.0562 4.504C23.0669 4.52533 23.0562 4.552 23.0242 4.584C23.0029 4.616 22.9762 4.62133 22.9442 4.6C22.9122 4.6 22.9016 4.616 22.9122 4.648C22.9122 4.69067 22.9016 4.71733 22.8802 4.728C22.8589 4.74933 22.8162 4.80267 22.7522 4.888C22.6989 4.984 22.6402 5.032 22.5762 5.032C22.5122 5.032 22.4856 5.048 22.4962 5.08C22.5069 5.09067 22.4909 5.128 22.4482 5.192C22.4269 5.21333 22.4002 5.24 22.3682 5.272C22.3362 5.304 22.3096 5.336 22.2882 5.368C22.2562 5.4 22.2189 5.432 22.1762 5.464C22.1442 5.496 22.1122 5.52267 22.0802 5.544C21.9949 5.608 21.9522 5.64533 21.9522 5.656C21.9522 5.67733 21.9256 5.69867 21.8722 5.72C21.8189 5.73067 21.7816 5.75733 21.7602 5.8C21.7602 5.85333 21.7176 5.896 21.6322 5.928C21.6002 5.94933 21.5576 5.98133 21.5042 6.024C21.4509 6.06667 21.4029 6.10933 21.3602 6.152C21.2642 6.248 21.2056 6.296 21.1842 6.296C21.1736 6.296 21.1576 6.30667 21.1362 6.328C21.1149 6.36 21.0776 6.39733 21.0242 6.44C20.9816 6.46133 20.9549 6.47733 20.9442 6.488C20.9336 6.488 20.9229 6.49333 20.9122 6.504C20.8909 6.52533 20.8322 6.568 20.7362 6.632C20.6509 6.696 20.5976 6.728 20.5762 6.728C20.5549 6.728 20.5389 6.73333 20.5282 6.744C20.5176 6.776 20.4696 6.81867 20.3842 6.872C20.3096 6.91467 20.2509 6.936 20.2082 6.936C20.1656 6.936 20.1442 6.952 20.1442 6.984C20.1442 7.00533 20.1069 7.03733 20.0322 7.08C20.0109 7.10133 19.9789 7.12267 19.9362 7.144C19.9042 7.15467 19.8776 7.17067 19.8562 7.192C19.8349 7.21333 19.8029 7.24 19.7602 7.272C19.7176 7.29333 19.6696 7.31467 19.6162 7.336C19.5202 7.38933 19.4456 7.43733 19.3922 7.48C19.3496 7.512 19.3496 7.528 19.3922 7.528C19.4136 7.528 19.4456 7.53867 19.4882 7.56C19.5309 7.58133 19.5789 7.60267 19.6322 7.624C19.6856 7.64533 19.7336 7.672 19.7762 7.704C19.8189 7.72533 19.8402 7.74133 19.8402 7.752C19.8616 7.77333 19.8882 7.77333 19.9202 7.752C19.9629 7.752 20.0056 7.768 20.0482 7.8C20.1122 7.84267 20.1496 7.864 20.1602 7.864C20.1709 7.864 20.1976 7.88533 20.2402 7.928C20.2722 7.96 20.2989 7.976 20.3202 7.976C20.3202 7.96533 20.3789 7.992 20.4962 8.056C20.6029 8.10933 20.6669 8.136 20.6882 8.136C20.7096 8.11467 20.7362 8.11467 20.7682 8.136C20.8002 8.15733 20.8162 8.17867 20.8162 8.2C20.8162 8.22133 20.8216 8.232 20.8322 8.232C20.8536 8.232 20.8749 8.216 20.8962 8.184C20.8962 8.152 20.9176 8.14667 20.9602 8.168C20.9816 8.17867 21.0136 8.184 21.0562 8.184C21.1096 8.184 21.1576 8.2 21.2002 8.232C21.2429 8.25333 21.2909 8.264 21.3442 8.264C21.3656 8.264 21.3869 8.26933 21.4082 8.28C21.4296 8.29067 21.4509 8.30133 21.4722 8.312C21.4829 8.33333 21.5256 8.35467 21.6002 8.376C21.6856 8.376 21.7549 8.40267 21.8082 8.456C21.8402 8.488 21.8722 8.49867 21.9042 8.488C21.9256 8.456 21.9682 8.46133 22.0322 8.504C22.1069 8.536 22.1442 8.57333 22.1442 8.616C22.1442 8.65867 22.1602 8.664 22.1922 8.632C22.2349 8.61067 22.3042 8.62667 22.4002 8.68C22.5069 8.73333 22.5709 8.76 22.5922 8.76C22.6242 8.76 22.6402 8.77067 22.6402 8.792C22.6402 8.81333 22.6509 8.824 22.6722 8.824C22.7149 8.824 22.7576 8.856 22.8002 8.92C22.8536 8.97333 22.8909 9 22.9122 9C22.9229 9 22.9389 9.01067 22.9602 9.032C22.9816 9.04267 23.0029 9.05867 23.0242 9.08C23.0776 9.13333 23.1202 9.16 23.1522 9.16C23.1842 9.16 23.2002 9.176 23.2002 9.208C23.2109 9.24 23.2429 9.26667 23.2962 9.288C23.3496 9.30933 23.3762 9.336 23.3762 9.368C23.3762 9.4 23.3869 9.416 23.4082 9.416C23.4296 9.416 23.4616 9.44267 23.5042 9.496C23.5469 9.53867 23.5682 9.576 23.5682 9.608C23.5682 9.64 23.5789 9.656 23.6002 9.656C23.6322 9.656 23.6536 9.67733 23.6642 9.72C23.6856 9.76267 23.6856 9.79467 23.6642 9.816C23.6642 9.83733 23.6749 9.848 23.6962 9.848C23.7389 9.848 23.7549 9.87467 23.7442 9.928C23.7442 9.97067 23.7282 10.0027 23.6962 10.024C23.6536 10.056 23.6429 10.0827 23.6642 10.104C23.6856 10.136 23.6909 10.1573 23.6802 10.168C23.6589 10.1893 23.6162 10.2053 23.5522 10.216C23.4989 10.2267 23.4669 10.2267 23.4562 10.216C23.4349 10.1947 23.4029 10.2 23.3602 10.232C23.2962 10.2533 23.2589 10.2587 23.2482 10.248C23.2269 10.2267 23.1949 10.216 23.1522 10.216C23.1096 10.216 23.0722 10.2 23.0402 10.168C23.0296 10.136 22.9976 10.12 22.9442 10.12C22.9016 10.12 22.8482 10.0987 22.7842 10.056C22.7309 10.0133 22.7042 9.976 22.7042 9.944C22.7042 9.912 22.6882 9.90667 22.6562 9.928C22.6349 9.93867 22.5816 9.92267 22.4962 9.88C22.4109 9.83733 22.3416 9.79467 22.2882 9.752C22.2669 9.73067 22.2296 9.70933 22.1762 9.688C22.1336 9.656 22.0856 9.624 22.0322 9.592C21.9042 9.53867 21.8189 9.48 21.7762 9.416C21.7336 9.37333 21.6909 9.352 21.6482 9.352C21.6056 9.352 21.5842 9.32 21.5842 9.256C21.5842 9.21333 21.5736 9.20267 21.5522 9.224C21.4882 9.26667 21.4189 9.25067 21.3442 9.176C21.2909 9.12267 21.2536 9.096 21.2322 9.096C21.2002 9.096 21.1736 9.08 21.1522 9.048C21.1309 9.00533 21.1042 8.98933 21.0722 9C21.0509 9 20.9976 8.97333 20.9122 8.92C20.8269 8.856 20.7736 8.824 20.7522 8.824L20.7362 8.808C20.7256 8.808 20.7096 8.79733 20.6882 8.776C20.6669 8.744 20.6082 8.70667 20.5122 8.664C20.4696 8.64267 20.4269 8.62667 20.3842 8.616C20.3522 8.59467 20.3256 8.57867 20.3042 8.568C20.2829 8.55733 20.2509 8.552 20.2082 8.552C20.1762 8.54133 20.1389 8.53067 20.0962 8.52C19.9576 8.50933 19.8669 8.49867 19.8242 8.488C19.7922 8.47733 19.7656 8.46133 19.7442 8.44C19.7229 8.39733 19.6962 8.392 19.6642 8.424C19.6429 8.44533 19.5842 8.45067 19.4882 8.44C19.3922 8.42933 19.3176 8.41333 19.2642 8.392C19.2322 8.37067 19.2109 8.37067 19.2002 8.392C19.2002 8.41333 19.2002 8.50933 19.2002 8.68C19.2002 8.82933 19.1842 8.92 19.1522 8.952C19.1309 8.96267 19.1309 8.97867 19.1522 9C19.1736 9.01067 19.1842 9.032 19.1842 9.064C19.1949 9.08533 19.2002 9.13867 19.2002 9.224C19.1896 9.352 19.1789 9.42667 19.1682 9.448C19.1682 9.45867 19.1576 9.464 19.1362 9.464C19.1042 9.464 19.0882 9.48533 19.0882 9.528C19.0776 9.56 19.0936 9.576 19.1362 9.576C19.1682 9.576 19.1896 9.624 19.2002 9.72C19.2109 9.816 19.1949 9.89067 19.1522 9.944C19.1096 10.0187 19.1096 10.056 19.1522 10.056C19.1736 10.056 19.1842 10.0773 19.1842 10.12C19.1949 10.152 19.2002 10.1947 19.2002 10.248C19.2002 10.2907 19.1949 10.3333 19.1842 10.376C19.1842 10.4187 19.1736 10.4453 19.1522 10.456C19.1202 10.4773 19.1202 10.488 19.1522 10.488C19.1949 10.488 19.2162 10.504 19.2162 10.536C19.2162 10.5573 19.2162 10.6 19.2162 10.664C19.2162 10.728 19.2216 10.7973 19.2322 10.872C19.2322 10.9573 19.2322 11.0693 19.2322 11.208C19.2429 11.3467 19.2536 11.4747 19.2642 11.592C19.2749 11.7093 19.2802 11.816 19.2802 11.912C19.2802 12.0187 19.2802 12.0827 19.2802 12.104C19.2802 12.1573 19.2909 12.184 19.3122 12.184C19.3229 12.184 19.3282 12.216 19.3282 12.28C19.3389 12.344 19.3336 12.3973 19.3122 12.44C19.3122 12.472 19.2856 12.488 19.2322 12.488C19.2002 12.488 19.1896 12.504 19.2002 12.536C19.2002 12.568 19.1896 12.584 19.1682 12.584C19.1469 12.584 19.1202 12.6 19.0882 12.632C19.0562 12.6853 19.0136 12.68 18.9602 12.616C18.9176 12.5947 18.8962 12.568 18.8962 12.536C18.8962 12.504 18.8856 12.488 18.8642 12.488C18.8536 12.488 18.8482 12.4773 18.8482 12.456C18.8589 12.424 18.8376 12.392 18.7842 12.36C18.7309 12.328 18.6936 12.3227 18.6722 12.344C18.6509 12.3653 18.6189 12.3653 18.5762 12.344C18.5442 12.3227 18.5282 12.296 18.5282 12.264C18.5282 12.232 18.5122 12.2 18.4802 12.168C18.4589 12.1253 18.4376 11.976 18.4162 11.72C18.4162 11.4853 18.4056 11.3147 18.3842 11.208C18.3842 11.0907 18.3842 10.9787 18.3842 10.872C18.3842 10.7547 18.3736 10.6373 18.3522 10.52C18.3309 10.52 18.3149 10.456 18.3042 10.328C18.2936 10.2 18.2829 10.056 18.2722 9.896C18.2722 9.736 18.2722 9.58133 18.2722 9.432C18.2829 9.28267 18.2936 9.192 18.3042 9.16C18.3256 9.128 18.3256 9.096 18.3042 9.064C18.2829 9.04267 18.2669 8.98933 18.2562 8.904C18.2562 8.81867 18.2669 8.75467 18.2882 8.712C18.3202 8.65867 18.3202 8.632 18.2882 8.632C18.2776 8.632 18.2669 8.58933 18.2562 8.504C18.2562 8.408 18.2562 8.30133 18.2562 8.184C18.2669 8.06667 18.2776 7.96 18.2882 7.864C18.2989 7.75733 18.3096 7.69867 18.3202 7.688C18.3416 7.66667 18.3416 7.656 18.3202 7.656C18.2989 7.656 18.2882 7.608 18.2882 7.512C18.2882 7.416 18.2829 7.36267 18.2722 7.352C18.2616 7.33067 18.2669 7.30933 18.2882 7.288C18.2989 7.288 18.3042 7.26667 18.3042 7.224C18.2829 7.20267 18.2829 7.16 18.3042 7.096C18.3362 7.032 18.3362 7 18.3042 7C18.2722 6.98933 18.2722 6.94667 18.3042 6.872C18.3362 6.808 18.3416 6.76533 18.3202 6.744C18.2776 6.744 18.2722 6.728 18.3042 6.696C18.3256 6.65333 18.3362 6.54133 18.3362 6.36C18.3362 6.15733 18.3469 6.056 18.3682 6.056C18.3896 6.04533 18.3949 6.01867 18.3842 5.976C18.3629 5.95467 18.3522 5.91733 18.3522 5.864C18.3522 5.81067 18.3576 5.752 18.3682 5.688C18.3682 5.61333 18.3682 5.53333 18.3682 5.448C18.3789 5.352 18.3896 5.272 18.4002 5.208C18.4216 4.89867 18.4482 4.728 18.4802 4.696C18.5122 4.664 18.5069 4.648 18.4642 4.648C18.4429 4.62667 18.4376 4.584 18.4482 4.52C18.4696 4.44533 18.4909 4.392 18.5122 4.36C18.5442 4.328 18.5442 4.312 18.5122 4.312C18.5016 4.30133 18.5069 4.27467 18.5282 4.232C18.5496 4.21067 18.5496 4.2 18.5282 4.2C18.5069 4.2 18.5016 4.152 18.5122 4.056C18.5336 3.94933 18.5602 3.88 18.5922 3.848C18.6242 3.80533 18.6242 3.784 18.5922 3.784C18.5709 3.784 18.5656 3.74133 18.5762 3.656C18.5869 3.56 18.6029 3.496 18.6242 3.464C18.6349 3.45333 18.6402 3.44267 18.6402 3.432C18.6402 3.432 18.6402 3.42667 18.6402 3.416C18.6296 3.40533 18.6402 3.36267 18.6722 3.288C18.6936 3.26667 18.7096 3.24 18.7202 3.208C18.7309 3.176 18.7362 3.14933 18.7362 3.128C18.7256 3.11733 18.7202 3.09067 18.7202 3.048C18.7309 3.00533 18.7416 2.95733 18.7522 2.904C18.7629 2.81867 18.7629 2.77067 18.7522 2.76C18.7522 2.74933 18.7362 2.744 18.7042 2.744C18.6509 2.744 18.6242 2.75467 18.6242 2.776C18.6242 2.79733 18.5869 2.81867 18.5122 2.84C18.4376 2.86133 18.3896 2.86133 18.3682 2.84C18.3362 2.84 18.3149 2.85067 18.3042 2.872C18.2829 2.88267 18.2296 2.888 18.1442 2.888C18.0696 2.87733 18.0322 2.89333 18.0322 2.936C18.0322 2.968 18.0056 3.00533 17.9522 3.048C17.8989 3.08 17.8349 3.112 17.7602 3.144C17.6856 3.176 17.6109 3.20267 17.5362 3.224C17.4616 3.24533 17.4029 3.256 17.3602 3.256C17.2642 3.256 17.1949 3.23467 17.1522 3.192C17.1096 3.14933 17.1362 3.10133 17.2322 3.048ZM19.2162 5.992C19.2589 6.01333 19.2802 6.056 19.2802 6.12C19.2802 6.184 19.2589 6.22667 19.2162 6.248C19.1736 6.26933 19.1736 6.30133 19.2162 6.344C19.2376 6.376 19.2482 6.41867 19.2482 6.472C19.2589 6.51467 19.2536 6.54667 19.2322 6.568C19.1896 6.58933 19.1789 6.61067 19.2002 6.632C19.2109 6.65333 19.2376 6.65333 19.2802 6.632C19.3336 6.61067 19.3602 6.58933 19.3602 6.568C19.3602 6.54667 19.3762 6.536 19.4082 6.536C19.4296 6.536 19.4616 6.51467 19.5042 6.472C19.5789 6.408 19.6376 6.35467 19.6802 6.312C19.7336 6.26933 19.7922 6.22667 19.8562 6.184C19.9096 6.13067 19.9362 6.104 19.9362 6.104C19.9362 6.104 19.9576 6.088 20.0002 6.056C20.0749 6.03467 20.1122 6.008 20.1122 5.976C20.1122 5.93333 20.1496 5.896 20.2242 5.864C20.2989 5.82133 20.3362 5.79467 20.3362 5.784C20.3256 5.752 20.3522 5.72533 20.4162 5.704C20.4696 5.68267 20.4962 5.66133 20.4962 5.64C20.4962 5.62933 20.5176 5.60267 20.5602 5.56C20.6029 5.51733 20.6349 5.496 20.6562 5.496C20.6776 5.496 20.7149 5.46933 20.7682 5.416C20.8322 5.36267 20.8642 5.32533 20.8642 5.304C20.8429 5.28267 20.8642 5.26133 20.9282 5.24C20.9816 5.208 21.0082 5.18133 21.0082 5.16C21.0082 5.13867 21.0242 5.112 21.0562 5.08C21.0776 5.06933 21.1202 5.03733 21.1842 4.984C21.2482 4.92 21.3122 4.856 21.3762 4.792C21.4509 4.71733 21.5202 4.648 21.5842 4.584C21.6589 4.50933 21.7069 4.456 21.7282 4.424C21.7816 4.33867 21.8349 4.26933 21.8882 4.216C21.9522 4.16267 21.9949 4.136 22.0162 4.136C22.0589 4.136 22.0642 4.12 22.0322 4.088C22.0322 4.06667 22.0749 4.00267 22.1602 3.896C22.2456 3.81067 22.2989 3.73067 22.3202 3.656C22.3202 3.57067 22.3416 3.528 22.3842 3.528C22.4056 3.50667 22.4162 3.47467 22.4162 3.432C22.4162 3.38933 22.4269 3.35733 22.4482 3.336C22.4802 3.304 22.4962 3.256 22.4962 3.192C22.4962 3.128 22.4802 3.064 22.4482 3C22.4269 2.92533 22.3949 2.86667 22.3522 2.824C22.3202 2.77067 22.2829 2.744 22.2402 2.744C22.2189 2.744 22.1976 2.728 22.1762 2.696C22.1549 2.67467 22.1282 2.66933 22.0962 2.68C22.0749 2.70133 22.0056 2.69067 21.8882 2.648C21.8029 2.616 21.7176 2.59467 21.6322 2.584C21.5576 2.57333 21.4616 2.56267 21.3442 2.552C21.2802 2.552 21.2322 2.536 21.2002 2.504C21.1682 2.472 21.1522 2.472 21.1522 2.504C21.1522 2.51467 21.1309 2.52533 21.0882 2.536C21.0456 2.536 20.9922 2.536 20.9282 2.536C20.8749 2.536 20.8216 2.53067 20.7682 2.52C20.7256 2.50933 20.7042 2.49867 20.7042 2.488C20.6936 2.46667 20.6776 2.46133 20.6562 2.472C20.6349 2.472 20.6242 2.48267 20.6242 2.504C20.6242 2.52533 20.5602 2.54133 20.4322 2.552C20.3576 2.552 20.2562 2.55733 20.1282 2.568C20.0002 2.568 19.8776 2.57333 19.7602 2.584C19.6429 2.59467 19.5362 2.60533 19.4402 2.616C19.3549 2.62667 19.3122 2.632 19.3122 2.632C19.3016 2.64267 19.2909 2.69067 19.2802 2.776C19.2802 2.86133 19.2749 2.96267 19.2642 3.08C19.2642 3.19733 19.2642 3.32 19.2642 3.448C19.2749 3.56533 19.2802 3.672 19.2802 3.768C19.2909 3.82133 19.2909 3.88 19.2802 3.944C19.2802 3.99733 19.2749 4.04533 19.2642 4.088C19.2536 4.17333 19.2589 4.22133 19.2802 4.232C19.3016 4.24267 19.3122 4.29067 19.3122 4.376C19.3229 4.45067 19.3282 4.536 19.3282 4.632C19.3282 4.728 19.3229 4.824 19.3122 4.92C19.3016 5.00533 19.2909 5.05867 19.2802 5.08C19.2482 5.12267 19.2429 5.16533 19.2642 5.208C19.2962 5.25067 19.3122 5.34667 19.3122 5.496C19.3016 5.56 19.2962 5.61867 19.2962 5.672C19.2962 5.71467 19.2962 5.74667 19.2962 5.768C19.2962 5.87467 19.2696 5.93867 19.2162 5.96C19.1842 5.96 19.1842 5.97067 19.2162 5.992ZM22.5762 4.376C22.6189 4.33333 22.6349 4.30667 22.6242 4.296C22.6242 4.28533 22.6296 4.27467 22.6402 4.264C22.6509 4.25333 22.6562 4.24267 22.6562 4.232C22.6669 4.22133 22.6776 4.21067 22.6882 4.2C22.7416 4.14667 22.7682 4.11467 22.7682 4.104C22.7682 4.072 22.7362 4.088 22.6722 4.152C22.6082 4.216 22.5762 4.25867 22.5762 4.28C22.5762 4.30133 22.5656 4.312 22.5442 4.312C22.5229 4.312 22.5016 4.33333 22.4802 4.376C22.4482 4.45067 22.4802 4.45067 22.5762 4.376ZM22.0802 4.904C22.1336 4.904 22.1709 4.86667 22.1922 4.792C22.2136 4.73867 22.2189 4.712 22.2082 4.712C22.2082 4.70133 22.1976 4.70667 22.1762 4.728C22.1336 4.74933 22.1122 4.776 22.1122 4.808C22.1122 4.82933 22.0962 4.85067 22.0642 4.872C22.0322 4.89333 22.0376 4.904 22.0802 4.904ZM22.3042 4.632C22.3256 4.632 22.3362 4.62133 22.3362 4.6C22.3362 4.57867 22.3522 4.56267 22.3842 4.552C22.4269 4.54133 22.4482 4.52533 22.4482 4.504C22.4589 4.48267 22.4482 4.472 22.4162 4.472C22.3949 4.472 22.3629 4.49867 22.3202 4.552C22.2882 4.60533 22.2829 4.632 22.3042 4.632ZM22.9762 3.8C22.9762 3.77867 22.9549 3.768 22.9122 3.768C22.8802 3.768 22.8642 3.77867 22.8642 3.8C22.8856 3.82133 22.9069 3.832 22.9282 3.832C22.9602 3.832 22.9762 3.82133 22.9762 3.8ZM22.8482 4.024C22.8696 4.00267 22.8802 3.98667 22.8802 3.976C22.8802 3.95467 22.8696 3.944 22.8482 3.944C22.8269 3.944 22.8162 3.96 22.8162 3.992C22.8162 4.03467 22.8269 4.04533 22.8482 4.024ZM21.8242 5.176C21.8456 5.176 21.8562 5.16533 21.8562 5.144C21.8349 5.12267 21.8189 5.112 21.8082 5.112C21.7869 5.112 21.7762 5.12267 21.7762 5.144C21.7762 5.16533 21.7922 5.176 21.8242 5.176ZM22.5442 9.448C22.5442 9.45867 22.5496 9.464 22.5602 9.464C22.5709 9.464 22.5762 9.45867 22.5762 9.448C22.5762 9.43733 22.5709 9.432 22.5602 9.432C22.5496 9.44267 22.5442 9.448 22.5442 9.448Z" fill="#1E1E1E"/>
</svg>
